<?xml version="1.0" encoding="iso-8859-1"?>
<!-- Generator: Adobe Illustrator 16.0.0, SVG Export Plug-In . SVG Version: 6.00 Build 0)  -->
<!DOCTYPE svg PUBLIC "-//W3C//DTD SVG 1.1//EN" "http://www.w3.org/Graphics/SVG/1.1/DTD/svg11.dtd">
<svg xmlns="http://www.w3.org/2000/svg" xmlns:xlink="http://www.w3.org/1999/xlink" version="1.1" id="Capa_1" x="0px" y="0px" width="512px" height="512px" viewBox="0 0 966.9 966.9" style="enable-background:new 0 0 966.9 966.9;" xml:space="preserve">
<g>
	<g>
		<path d="M398.2,286.2H569c-18.801-26.9-50.1-44.5-85.401-44.5C448.299,241.7,417,259.3,398.2,286.2z" fill="#ff8fc7"/>
		<path d="M649.9,634H317.099l-20.5,77.6c-2.899,7.701,2.9,16,11.101,16h71.7V920.4c0,25.699,20.8,46.5,46.5,46.5    c25.699,0,46.5-20.801,46.5-46.5V727.5h22.399v192.699c0,25.701,20.801,46.5,46.5,46.5c25.701,0,46.5-20.799,46.5-46.5V727.5    H659.5c8.299,0,14-8.199,11.1-16L649.9,634z" fill="#ff8fc7"/>
		<path d="M633.1,308.3H334c-7.1,0-12.7,6.2-11.9,13.3L336.9,458.7h295.5L645.1,321.4C645.699,314.4,640.199,308.3,633.1,308.3z" fill="#ff8fc7"/>
		<polygon points="332.7,479.9 332.7,480.8 332.7,510.699 634.299,510.699 634.299,480.8 634.299,479.9   " fill="#ff8fc7"/>
		<path d="M829.299,481.9C861.699,478.5,887.1,451,887.1,417.7c0-35.6-26.1-64-64.6-64c-2.801,0-110.9,0-110.9,0v156.999h117.699    V481.9z M829.299,388.9c13,3.101,22.801,14.8,22.801,28.8s-9.699,25.7-22.801,28.801V388.9z" fill="#ff8fc7"/>
		<path d="M910.4,528.699H56.6c-6.6,0-12,5.4-12,12V604c0,6.6,5.4,12,12,12h25.3v309.801c0,15.199,12.3,27.5,27.5,27.5    c15.2,0,27.5-12.301,27.5-27.5V616H830v309.801c0,15.199,12.299,27.5,27.5,27.5c15.199,0,27.5-12.301,27.5-27.5V616h25.299    c6.602,0,12-5.4,12-12v-63.301C922.4,534.1,917.1,528.699,910.4,528.699z" fill="#ff8fc7"/>
		<path d="M606.799,191C598.1,186.3,579,172.8,579,145c0-36,9-145-95.5-145C379,0,388,109,388,145c0,27.8-19.1,41.3-27.8,46    c-2.601,1.4-3.8,4.4-2.9,7.1c5.8,18.6,20.4,24.3,36.101,24.3c24.1,0,50.6-13.4,50.6-13.4c-12.5-7.3-18.9-21.8-22-36.4    c13.1,21.7,35.8,36,61.5,36c25.7,0,48.401-14.3,61.5-36c-3.1,14.7-9.5,29.1-22,36.4c0,0,26.5,13.4,50.6,13.4    c15.6,0,30.301-5.6,36.1-24.3C610.6,195.4,609.4,192.4,606.799,191z" fill="#ff8fc7"/>
	</g>
</g>
<g>
</g>
<g>
</g>
<g>
</g>
<g>
</g>
<g>
</g>
<g>
</g>
<g>
</g>
<g>
</g>
<g>
</g>
<g>
</g>
<g>
</g>
<g>
</g>
<g>
</g>
<g>
</g>
<g>
</g>
</svg>
